HIERARCHY
ROOT pelvis
{
  OFFSET 0 100 0
  CHANNELS 6 Xposition Yposition Zposition Zrotation Xrotation Yrotation
  JOINT pelvis_right_femur
  {
    OFFSET -10.78128 -3.44521 -0.5502486
    CHANNELS 3 Zrotation Xrotation Yrotation
    JOINT right_femur_tibia
    {
      OFFSET -0.8047443 -44.0398 -0.1307829
      CHANNELS 3 Zrotation Xrotation Yrotation
      JOINT right_tibia_foot
      {
        OFFSET 3.006224 -47.83518 -5
        CHANNELS 3 Zrotation Xrotation Yrotation
        End Site
        {
          OFFSET 0 -5 15
        }
      }
    }
  }
  JOINT pelvis_left_femur
  {
    OFFSET 10.78128 -3.44521 -0.5502486
    CHANNELS 3 Zrotation Xrotation Yrotation
    JOINT left_femur_tibia
    {
      OFFSET 0.8047443 -44.0398 -0.1307829
      CHANNELS 3 Zrotation Xrotation Yrotation
      JOINT left_tibia_foot
      {
        OFFSET -4.370144 -48.10324 -4.275266
        CHANNELS 3 Zrotation Xrotation Yrotation
        End Site
        {
          OFFSET 0 -5 15
        }
      }
    }
  }
  JOINT pelvis_spine1
  {
    OFFSET 0 6.468898 -3.129235
    CHANNELS 3 Zrotation Xrotation Yrotation
    JOINT spine1
    {
      OFFSET 0 23.15396 4.99043
      CHANNELS 3 Zrotation Xrotation Yrotation
      JOINT spine2
      {
        OFFSET 0 20.79997 -5.064912
        CHANNELS 3 Zrotation Xrotation Yrotation
        JOINT neck
        {
          OFFSET 0 14.38658 9.616178
          CHANNELS 3 Zrotation Xrotation Yrotation
          End Site
          {
            OFFSET 0 20 0
          }
        }
      }
      JOINT right_manubrium
      {
        OFFSET -5.722621 16.35077 3.967754
        CHANNELS 3 Zrotation Xrotation Yrotation
        JOINT right_clavicle
        {
          OFFSET -13.16364 1.694482 -4.693211
          CHANNELS 3 Zrotation Xrotation Yrotation
          JOINT right_humerus
          {
            OFFSET -28.5034 -0.3100689 -2.792744
            CHANNELS 3 Zrotation Xrotation Yrotation
            JOINT right_radius
            {
              OFFSET -25.15693 0.02248979 -1.271978
              CHANNELS 3 Zrotation Xrotation Yrotation
              End Site
              {
                OFFSET -15 0 0
              }
            }
          }
        }
      }
      JOINT left_manubrium
      {
        OFFSET 5.722621 16.35077 3.967754
        CHANNELS 3 Zrotation Xrotation Yrotation
        JOINT left_clavicle
        {
          OFFSET 13.16364 1.694482 -4.693211
          CHANNELS 3 Zrotation Xrotation Yrotation
          JOINT left_humerus
          {
            OFFSET 29.39168 -1.063119 -2.237045
            CHANNELS 3 Zrotation Xrotation Yrotation
            JOINT left_radius
            {
              OFFSET 24.59957 -0.9528479 0.9047498
              CHANNELS 3 Zrotation Xrotation Yrotation
              End Site
              {
                OFFSET 15 -0 -0
              }
            }
          }
        }
      }
    }
  }
}
MOTION
Frames: 17
Frame Time: 0.0416666666667
-646.1467 99.39623 2937.019 -3.276083 -5.587122 -29.02129 4.723991 -19.50672 -0.4196493 -0 9.937644 -0 -7.746479 2.375108 -5.252306 -3.879763 16.27201 -7.140148 -0 39.82017 -0 -3.134056 -11.54235 13.04188 -2.696967 0.6816575 3.495968 -0.1631045 8.61918 -2.665393 3.118571 25.03593 5.721001 2.804201 -14.89369 8.981629 4.861917 -14.22658 10.94488 79.71797 36.89625 -3.900182 -0 0 11.52981 -21.17729 16.29093 12.71164 5.564841 -16.2812 -1.819991 -89.06567 16.88638 14.0547 0 0 -4.973446 13.6632 17.84293 -4.531505
-649.9941 100.254 2942.923 -4.078075 -6.784592 -29.73271 5.643386 -14.57656 0.6840455 -0 12.98455 -0 -8.35435 1.66507 -5.345614 -3.530017 12.97241 -6.888666 -0 49.28304 -0 -3.066652 -8.584173 13.9895 -2.717091 0.6671085 3.710552 -0.2666191 8.657687 -2.490534 3.039067 25.02526 5.770317 2.937581 -14.98136 8.849625 4.884449 -14.58614 10.99291 79.2406 36.68541 -3.266771 -0 0 12.14852 -21.39806 15.88621 12.88123 5.56479 -16.12613 -1.821585 -89.57631 16.77668 14.9034 0 0 -4.17212 13.60762 17.75522 -4.504265
-653.6674 101.5306 2948.445 -4.687361 -7.7423 -30.64612 6.184749 -9.297886 1.685607 -0 15.21766 -0 -8.450385 0.2659364 -5.12493 -3.040783 7.634644 -6.564826 -0 56.44234 -0 -3.352269 -6.39095 15.07895 -2.735058 0.6468057 4.028324 -0.3999806 8.733851 -2.280176 2.913298 24.98727 5.793154 3.10544 -15.09747 8.590497 4.873061 -15.1304 11.06374 78.65755 36.19641 -2.485667 -0 0 13.05665 -21.68788 15.20757 13.12852 5.531392 -15.93863 -1.862687 -90.27409 16.69076 16.1149 0 0 -3.141253 13.29109 17.53532 -4.187205
-657.0865 102.8468 2953.556 -4.984049 -8.217202 -31.66056 6.328419 -4.190701 2.449194 -0 15.74326 -0 -7.925844 -1.980686 -4.605666 -2.346714 0.7740406 -6.058407 -0 59.46179 -0 -3.871859 -5.254207 16.12631 -2.747039 0.6199672 4.423313 -0.564871 8.842403 -2.035962 2.754673 24.93372 5.795076 3.304084 -15.21857 8.232079 4.828147 -15.82119 11.15132 78.0179 35.47376 -1.597733 -0 0 14.19484 -22.04941 14.33602 13.43136 5.47812 -15.73429 -1.944617 -91.12724 16.59272 17.61075 0 0 -1.914267 12.7989 17.24014 -3.679792
-660.2421 103.8306 2958.366 -4.993638 -8.195756 -32.69513 6.184245 0.4606981 2.869232 -0 14.58028 -0 -6.977223 -4.979725 -3.899392 -1.411381 -6.550301 -5.305936 -0 57.59371 -0 -4.211334 -5.005163 17.00993 -2.748051 0.5825335 4.855279 -0.755181 8.979765 -1.773481 2.57926 24.87387 5.78649 3.526487 -15.32585 7.816345 4.753934 -16.5981 11.24825 77.39844 34.59647 -0.6916785 -0 0 15.45786 -22.4704 13.38517 13.75047 5.425118 -15.54725 -2.068805 -92.06676 16.43902 19.25424 0 0 -0.5864146 12.25546 16.93426 -3.123876
-663.1824 104.2562 2963.053 -4.811998 -7.809536 -33.6959 5.872325 4.625663 2.939333 -0 12.52867 -0 -5.922514 -8.325629 -3.13815 -0.2958855 -13.2327 -4.383187 -0 51.57483 -0 -4.10365 -5.216526 17.68675 -2.733239 0.5278196 5.27902 -0.9565719 9.146466 -1.52264 2.400019 24.81037 5.779353 3.764698 -15.41144 7.385042 4.65734 -17.39248 11.34786 76.88612 33.65522 0.1080573 -0 0 16.71653 -22.92326 12.46558 14.03699 5.394443 -15.427 -2.239084 -92.99686 16.19538 20.87773 -0 0 0.6961032 11.78594 16.66914 -2.660331
-665.9892 104.0844 2967.791 -4.507994 -7.212199 -34.62185 5.430018 8.387775 2.782159 -0 10.6102 -0 -4.962043 -11.44592 -2.413961 0.8119398 -18.57764 -3.513056 -0 43.14207 -0 -3.68027 -5.534118 18.1718 -2.699078 0.448879 5.655583 -1.15073 9.346535 -1.319812 2.223563 24.73935 5.783548 4.012288 -15.47752 6.9675 4.545762 -18.14398 11.44555 76.55505 32.72622 0.6731986 -0 0 17.85114 -23.37371 11.65567 14.24461 5.404603 -15.42604 -2.46186 -93.81997 15.84869 22.32489 -0 0 1.774442 11.48156 16.47003 -2.39046
-668.7554 103.418 2972.717 -4.118201 -6.540714 -35.44193 4.837295 11.79444 2.576525 -0 9.640334 -0 -4.137511 -13.78919 -1.768737 1.662978 -22.35331 -2.955772 -0 34.17789 -0 -3.274283 -5.807467 18.51408 -2.64402 0.3411194 5.95764 -1.320753 9.584037 -1.197644 2.051466 24.6545 5.805253 4.264978 -15.53018 6.578752 4.425264 -18.808 11.53824 76.45375 31.85907 0.9010222 -0 0 18.77195 -23.79087 10.99621 14.3383 5.467747 -15.58683 -2.743551 -94.4582 15.40692 23.47759 -0 0 2.514954 11.38938 16.33827 -2.365543
-671.567 102.4409 2977.922 -3.691925 -5.926919 -36.13779 4.091568 14.79445 2.449437 -0 10.14594 -0 -3.448609 -14.90885 -1.21547 2.053456 -24.59412 -2.879565 -0 26.17057 -0 -3.109002 -6.017135 18.7797 -2.568559 0.2033839 6.16986 -1.454145 9.860187 -1.1787 1.883021 24.55056 5.847133 4.519865 -15.57517 6.223928 4.300172 -19.35606 11.62367 76.6037 31.07778 0.7288649 -0 0 19.42435 -24.15216 10.49886 14.29732 5.589061 -15.93425 -3.087316 -94.86323 14.89114 24.26399 -0 0 2.829125 11.51964 16.2602 -2.595519
-674.4896 101.3745 2983.456 -3.307016 -5.49433 -36.69919 3.243739 17.24063 2.426486 -0 12.43973 -0 -2.942015 -14.49376 -0.7633194 1.889869 -25.42094 -3.308809 -0 20.08631 -0 -3.184367 -6.180608 19.0254 -2.474872 0.03738092 6.288515 -1.543274 10.17278 -1.273571 1.716934 24.42393 5.908613 4.774164 -15.61744 5.902379 4.173855 -19.77596 11.70051 77.00165 30.38649 0.1381662 -0 0 19.78999 -24.44247 10.15598 14.11516 5.766409 -16.47313 -3.49069 -95.0192 14.32655 24.66044 -0 0 2.679695 11.85485 16.21366 -3.058939
-677.5584 100.451 2989.329 -3.049216 -5.33724 -37.11497 2.384278 18.91128 2.454594 -0 16.67418 -0 -2.701402 -12.43315 -0.4316673 1.192679 -24.95325 -4.152168 -0 16.40452 -0 -3.340839 -6.318289 19.27162 -2.366563 -0.1529016 6.321055 -1.585084 10.51597 -1.480307 1.552498 24.27253 5.985865 5.024006 -15.66124 5.610735 4.050213 -20.07129 11.76848 77.61956 29.77732 -0.8428631 -0 0 19.88718 -24.65141 9.948633 13.79873 5.990145 -17.18652 -3.943643 -94.94204 13.73696 24.69103 -0 0 2.083484 12.35622 16.17352 -3.710195
-680.7661 99.88833 2995.491 -2.979062 -5.499026 -37.36586 1.603816 19.53539 2.458333 -0 22.81424 -0 -2.779779 -8.902729 -0.2502975 0.06677276 -23.28968 -5.262612 -0 15.15313 -0 -3.379044 -6.464876 19.48928 -2.249136 -0.3604464 6.284449 -1.581531 10.87813 -1.782756 1.391021 24.09743 6.072673 5.264063 -15.70862 5.346429 3.935439 -20.25778 11.82785 78.4018 29.24126 -2.134667 -0 0 19.76748 -24.77269 9.852697 13.36809 6.24438 -18.0328 -4.426454 -94.67648 13.14425 24.42182 -0 0 1.115642 12.97055 16.11878 -4.487962
-684.055 99.85464 3001.829 -3.103643 -5.957797 -37.42241 0.9556083 18.82959 2.387189 -0 30.51929 -0 -3.140739 -4.41088 -0.2575394 -1.329361 -20.53448 -6.485819 -0 15.92052 -0 -3.160271 -6.695532 19.60521 -2.131042 -0.5734578 6.201477 -1.540725 11.23866 -2.148639 1.237121 23.90644 6.163066 5.488574 -15.75755 5.111802 3.839341 -20.35566 11.87809 79.26438 28.78086 -3.606022 -0 0 19.5046 -24.80685 9.842203 12.85612 6.51065 -18.94396 -4.90842 -94.28947 12.57129 23.94689 0 0 -0.09010139 13.64037 16.04027 -5.32745
-687.3195 100.4176 3008.165 -3.364582 -6.623214 -37.24932 0.4440645 16.56416 2.227292 -0 38.97091 -0 -3.649631 0.2405299 -0.5021207 -2.803189 -16.85157 -7.68028 -0 17.87991 -0 -2.654801 -7.140635 19.53017 -2.024225 -0.7743907 6.09457 -1.47733 11.56662 -2.53107 1.098921 23.71721 6.255261 5.693415 -15.80158 4.917336 3.774853 -20.37969 11.91662 80.1044 28.41906 -5.08979 -0 0 19.17326 -24.7659 9.890749 12.30606 6.773594 -19.83156 -5.349896 -93.8572 12.04476 23.36382 0 0 -1.357834 14.3174 15.9453 -6.175782
-690.4316 101.493 3014.285 -3.653935 -7.351156 -36.81936 0.04985452 12.66958 1.97521 -0 46.77482 -0 -4.129379 4.115424 -1.027515 -4.145745 -12.51001 -8.717743 -0 19.90301 -0 -1.924922 -7.960466 19.21045 -1.942676 -0.9419675 5.978066 -1.410294 11.82516 -2.877394 0.9865024 23.55663 6.354702 5.877872 -15.8321 4.781749 3.754491 -20.33042 11.93849 80.82518 28.19684 -6.421949 -0 0 18.82084 -24.67635 9.973865 11.76499 7.02644 -20.60539 -5.710122 -93.44485 11.59297 22.74168 0 0 -2.511921 14.97659 15.85596 -7.006706
-693.2912 102.8321 3020.007 -3.862349 -7.982416 -36.13721 -0.2274065 7.351926 1.600916 -0 52.16093 -0 -4.4763 6.44453 -1.814979 -5.166111 -7.867201 -9.484193 -0 20.86268 -0 -1.053753 -9.263035 18.68224 -1.898235 -1.057184 5.852484 -1.35739 11.98288 -3.145052 0.9087362 23.45387 6.473222 6.044758 -15.84166 4.726714 3.784376 -20.19274 11.9379 81.37011 28.15545 -7.493858 -0 0 18.4461 -24.57668 10.07482 11.27328 7.27282 -21.20244 -5.960432 -93.08552 11.23663 22.09565 0 0 -3.435621 15.62397 15.80091 -7.827568
-695.8755 104.0852 3025.243 -3.9315 -8.390144 -35.26 -0.3553645 1.117868 1.045317 -0 53.60872 -0 -4.7567 6.983042 -2.724693 -5.748913 -3.272063 -9.900054 -0 20.1053 -0 -0.08807951 -11.00888 18.07322 -1.895148 -1.111244 5.706485 -1.329076 12.02784 -3.317001 0.8694807 23.42863 6.623005 6.198923 -15.826 4.766168 3.859668 -19.94696 11.91116 81.74399 28.31071 -8.288475 -0 0 18.00635 -24.50702 10.19081 10.85318 7.522802 -21.61096 -6.096898 -92.77283 10.97694 21.39132 0 0 -4.111006 16.28954 15.80323 -8.670548
